<?xml version="1.0" encoding="UTF-8" standalone="no"?>
<!-- Created with Inkscape (http://www.inkscape.org/) -->

<svg
   width="132.87227mm"
   height="127.0471mm"
   viewBox="0 0 132.87227 127.0471"
   version="1.1"
   id="svg5"
   xml:space="preserve"
   sodipodi:docname="sanki.svg"
   inkscape:version="1.2.2 (b0a8486541, 2022-12-01)"
   xmlns:inkscape="http://www.inkscape.org/namespaces/inkscape"
   xmlns:sodipodi="http://sodipodi.sourceforge.net/DTD/sodipodi-0.dtd"
   xmlns="http://www.w3.org/2000/svg"
   xmlns:svg="http://www.w3.org/2000/svg"><sodipodi:namedview
     id="namedview7"
     pagecolor="#ffffff"
     bordercolor="#000000"
     borderopacity="0.25"
     inkscape:showpageshadow="2"
     inkscape:pageopacity="0.0"
     inkscape:pagecheckerboard="0"
     inkscape:deskcolor="#d1d1d1"
     inkscape:document-units="mm"
     showgrid="false"
     showguides="true"
     inkscape:zoom="1"
     inkscape:cx="123"
     inkscape:cy="202"
     inkscape:window-width="1920"
     inkscape:window-height="1003"
     inkscape:window-x="1280"
     inkscape:window-y="40"
     inkscape:window-maximized="1"
     inkscape:current-layer="layer1" /><defs
     id="defs2" /><g
     inkscape:label="Layer 1"
     inkscape:groupmode="layer"
     id="layer1"
     transform="translate(-53.8528,-41.676374)"><rect
       style="opacity:1;fill:#000000;fill-opacity:1;stroke:#000000;stroke-width:3.565;stroke-linejoin:round;stroke-dasharray:none;stroke-opacity:1;paint-order:stroke fill markers"
       id="rect234"
       width="98.729401"
       height="123.48209"
       x="55.6353"
       y="43.458874"
       ry="6.1970348" /><rect
       style="fill:#ffffff;fill-opacity:1;stroke:#6f7374;stroke-width:3.565;stroke-linejoin:round;stroke-dasharray:none;stroke-opacity:0;paint-order:stroke fill markers"
       id="rect1152-3-6"
       width="35.562748"
       height="8.1079998"
       x="98.261734"
       y="-77.95948"
       ry="0"
       transform="scale(1,-1)" /><rect
       style="fill:#ffffff;fill-opacity:1;stroke:#6f7374;stroke-width:3.565;stroke-linejoin:round;stroke-dasharray:none;stroke-opacity:0;paint-order:stroke fill markers"
       id="rect1152-3-6-7"
       width="13.557063"
       height="8.1079998"
       x="61.303558"
       y="-77.95948"
       ry="0"
       transform="scale(1,-1)" /><rect
       style="opacity:1;fill:#ffffff;fill-opacity:1;stroke:#6f7374;stroke-width:3.56501;stroke-linejoin:round;stroke-dasharray:none;stroke-opacity:0;paint-order:stroke fill markers"
       id="rect1601"
       width="42.711491"
       height="8.1079998"
       x="61.303558"
       y="114.63038" /><rect
       style="fill:#ffffff;fill-opacity:1;stroke:#6f7374;stroke-width:3.565;stroke-linejoin:round;stroke-dasharray:none;stroke-opacity:0;paint-order:stroke fill markers"
       id="rect1601-5"
       width="49.718815"
       height="8.1079998"
       x="61.303555"
       y="131.39253" /><rect
       style="fill:#ffffff;fill-opacity:1;stroke:#6f7374;stroke-width:3.56499;stroke-linejoin:round;stroke-dasharray:none;stroke-opacity:0;paint-order:stroke fill markers"
       id="rect1601-3"
       width="84.639473"
       height="8.1079998"
       x="61.303558"
       y="148.15468" /><rect
       style="fill:#ffffff;fill-opacity:1;stroke:#6f7374;stroke-width:3.565;stroke-linejoin:round;stroke-dasharray:none;stroke-opacity:0;paint-order:stroke fill markers"
       id="rect1599-6"
       width="17.222"
       height="8.1079998"
       x="61.303558"
       y="53.089333" /><rect
       style="fill:#ffffff;fill-opacity:1;stroke:#6f7374;stroke-width:3.565;stroke-linejoin:round;stroke-dasharray:none;stroke-opacity:0;paint-order:stroke fill markers"
       id="rect1152-3-6-9"
       width="30.435143"
       height="8.1079998"
       x="61.303555"
       y="-94.721634"
       ry="0"
       transform="scale(1,-1)" /><rect
       style="fill:#ffffff;fill-opacity:1;stroke:#6f7374;stroke-width:3.565;stroke-linejoin:round;stroke-dasharray:none;stroke-opacity:0;paint-order:stroke fill markers"
       id="rect1152-3-6-9-7"
       width="16.33"
       height="8.1079998"
       x="94.227417"
       y="-94.721634"
       ry="0"
       transform="scale(1,-1)" /><rect
       style="opacity:1;fill:#ffffff;fill-opacity:1;stroke:#ffffff;stroke-width:3.565;stroke-linejoin:round;stroke-dasharray:none;stroke-opacity:0;paint-order:stroke fill markers"
       id="rect2471"
       width="90.12455"
       height="2.6004388"
       x="57.761501"
       y="103.37579" /><rect
       style="fill:#ffffff;fill-opacity:1;stroke:#6f7374;stroke-width:3.565;stroke-linejoin:round;stroke-dasharray:none;stroke-opacity:0;paint-order:stroke fill markers"
       id="rect1599-6-9"
       width="35.285145"
       height="8.1079998"
       x="81.118553"
       y="53.089333" /><rect
       style="fill:#ffffff;fill-opacity:1;stroke:#6f7374;stroke-width:3.565;stroke-linejoin:round;stroke-dasharray:none;stroke-opacity:0;paint-order:stroke fill markers"
       id="rect1599-6-9-3"
       width="8.1079998"
       height="8.1079998"
       x="118.99669"
       y="53.089333" /><g
       style="fill:#9f9f9f;fill-opacity:1;stroke-width:2.38809"
       id="g2270"
       transform="matrix(-0.18947478,0.21816139,0.21816139,0.18947478,143.73969,38.939445)"><g
         id="g2260"
         style="fill:#9f9f9f;fill-opacity:1;stroke-width:2.38809">
	<path
   d="m 245.74,167.87 h -15.5 c -5.522,0 -10,4.478 -10,10 0,5.523 4.478,10 10,10 h 15.5 c 5.514,0 10,4.486 10,10 0,5.514 -4.486,10 -10,10 h -67.833 c 0,-33.117 0,-34.186 0,-49 h 23.336 c 4.867,0 9.281,-3.042 11.278,-7.479 L 237.39,95.938 c 1.723,-3.827 1.387,-8.141 -0.893,-11.665 -2.278,-3.524 -6.188,-5.402 -10.386,-5.402 H 37.237 c -4.867,0 -9.281,2.667 -11.278,7.104 L 1.09,141.053 c -1.723,3.827 -1.387,8.391 0.893,11.915 2.278,3.524 6.189,5.902 10.386,5.902 h 54.539 c 0,14.811 0,15.881 0,49 H 39.24 c -5.522,0 -10,4.478 -10,10 0,5.523 4.478,10 10,10 h 38 91 77.5 c 16.542,0 30,-13.458 30,-30 0,-16.542 -13.458,-30 -30,-30 z m -158.833,-9 h 71 c 0,14.811 0,15.881 0,49 h -71 c 0,-33.117 0,-34.185 0,-49 z"
   id="path2256"
   style="fill:#9f9f9f;fill-opacity:1;stroke-width:2.38809" />
	<path
   d="m 276.74,97.87 h -15.5 c -5.522,0 -10,4.478 -10,10 0,5.522 4.478,10 10,10 h 15.5 c 5.514,0 10,4.486 10,10 0,5.514 -4.486,10 -10,10 h -41.733 l -8.807,19.614 c -0.059,0.132 -0.13,0.256 -0.191,0.386 h 50.73 c 16.542,0 30,-13.458 30,-30 0,-16.542 -13.457,-30 -29.999,-30 z"
   id="path2258"
   style="fill:#9f9f9f;fill-opacity:1;stroke-width:2.38809" />
</g></g><rect
       style="fill:#ffffff;fill-opacity:1;stroke:#6f7374;stroke-width:3.565;stroke-linejoin:round;stroke-dasharray:none;stroke-opacity:0;paint-order:stroke fill markers"
       id="rect1152-3-6-9-7-0"
       width="18.290434"
       height="8.1079998"
       x="77.415962"
       y="-77.95948"
       ry="0"
       transform="scale(1,-1)" /><rect
       style="fill:#ffffff;fill-opacity:1;stroke:#6f7374;stroke-width:3.565;stroke-linejoin:round;stroke-dasharray:none;stroke-opacity:0;paint-order:stroke fill markers"
       id="rect1599-6-6"
       width="17.222"
       height="8.1079998"
       x="129.69768"
       y="53.089333" /></g></svg>
